<svg id="Layer_1" data-name="Layer 1" xmlns="http://www.w3.org/2000/svg" viewBox="0 0 519.16 234.7"><defs><style>.cls-1{fill:#00fc00;}.cls-2{fill:none;opacity:0.1;}.cls-3{fill:#fff;opacity:0.63;}.cls-4{opacity:0.31;}.cls-5{font-size:120.02px;}.cls-5,.cls-6{fill:#368aa5;font-family:SquareFont;}.cls-6{font-size:77.53px;}</style></defs><rect class="cls-1" x="364.69" y="148.34" width="48.95" height="48.95" transform="translate(752.62 -49.04) rotate(124.66)"/><polygon class="cls-2" points="359.87 178.16 394.52 202.11 418.47 167.47 359.87 178.16 359.87 178.16"/><polygon class="cls-2" points="359.87 178.16 418.47 167.47 383.82 143.51 359.87 178.16"/><polygon class="cls-3" points="383.82 143.51 418.47 167.47 423.22 166.6 382.95 138.76 355.12 179.03 359.87 178.16 383.82 143.51"/><polygon class="cls-4" points="418.47 167.47 394.52 202.11 359.87 178.16 359.87 178.16 355.12 179.03 395.38 206.86 423.22 166.6 418.47 167.47"/><rect class="cls-1" x="404.96" y="176.17" width="48.95" height="48.95" transform="translate(838.68 -38.5) rotate(124.66)"/><polygon class="cls-2" points="400.14 206 434.78 229.95 458.73 195.3 400.14 206 400.14 206"/><polygon class="cls-2" points="400.14 206 458.73 195.3 424.09 171.35 400.14 206"/><polygon class="cls-3" points="424.09 171.35 458.73 195.3 463.49 194.43 423.22 166.6 395.38 206.86 400.14 206 424.09 171.35"/><polygon class="cls-4" points="458.73 195.3 434.78 229.95 400.14 206 400.14 206 395.38 206.86 435.65 234.7 463.49 194.43 458.73 195.3"/><rect class="cls-1" x="432.8" y="135.91" width="48.95" height="48.95" transform="translate(849.22 -124.56) rotate(124.66)"/><polygon class="cls-2" points="427.97 165.73 462.62 189.68 486.57 155.03 427.97 165.73 427.97 165.73"/><polygon class="cls-2" points="427.97 165.73 486.57 155.03 451.92 131.09 427.97 165.73"/><polygon class="cls-3" points="451.92 131.09 486.57 155.03 491.32 154.17 451.06 126.33 423.22 166.6 427.97 165.73 451.92 131.09"/><polygon class="cls-4" points="486.57 155.03 462.62 189.68 427.97 165.73 427.97 165.73 423.22 166.6 463.49 194.43 491.32 154.17 486.57 155.03"/><rect class="cls-1" x="460.63" y="95.64" width="48.95" height="48.95" transform="translate(859.77 -210.62) rotate(124.66)"/><polygon class="cls-2" points="455.81 125.47 490.45 149.41 514.4 114.77 455.81 125.46 455.81 125.47"/><polygon class="cls-2" points="455.81 125.46 514.4 114.77 479.76 90.82 455.81 125.46"/><polygon class="cls-3" points="479.76 90.82 514.4 114.77 519.16 113.9 478.89 86.07 451.06 126.33 455.81 125.46 479.76 90.82"/><polygon class="cls-4" points="514.4 114.77 490.45 149.41 455.81 125.47 455.81 125.46 451.06 126.33 491.32 154.17 519.16 113.9 514.4 114.77"/><text class="cls-5" transform="translate(0 102.02)">TRAUMA</text><text class="cls-6" transform="translate(16.28 191.56)">PREVENT</text></svg>